<svg id="Capa_1" data-name="Capa 1" xmlns="http://www.w3.org/2000/svg" xmlns:xlink="http://www.w3.org/1999/xlink" viewBox="0 0 512 512"><defs><style>.cls-1{fill:none;}.cls-2{clip-path:url(#clip-path);}.cls-3{fill:#3a7dce;}.cls-4{fill:#fff;}</style><clipPath id="clip-path"><circle class="cls-1" cx="256" cy="256" r="256" transform="translate(-106.04 256) rotate(-45)"/></clipPath></defs><g class="cls-2"><rect class="cls-3" width="512" height="512"/><path class="cls-4" d="M96.91,241.58c-3.74-7.49-3.74-7.49-3.74-15-1.87,0-2.22.36-3.3.06s-1.49,6.9-5,5.5c-.59-.7,2.51-5.91-.85-8.07-1.08-.7.26-5-.21-6.84,0,0-4.27,2.22-7.48-5.62-1.58-2-3.75,1.87-3.75,1.87s.94,2.4-.76,3c-2.39-1.76-4.15-.84-7.19-3.25s.64-5.18-5.15-7.22c3.75-9.36,3.75-7.49,13.1-11.23C67,191,67,191,63.23,185.43c-5.62-1.87-7.49-3.74-13.11-7.49-7.48-9.36-11.22-28.07-11.22-41.17,4.73-4.39,11.22,15,20.58,20.58L72.58,163c7.49,3.74,9.36,7.49,15,11.23l16.84,5.61c7.49,5.62,11.23,13.11,16.85,15,6.08,0,7.25-3.51,9.2-3.72,11-.57,16.62-2,18.81-5.29,2.22-2.63,7.55,1.52,22.52-4.09l-1.87-7.49a11.13,11.13,0,0,1,9.35-1.87c-.14-3.42-.49-12.55,4.81-16.66-3.22-3.38-1.06-5.8-1.06-5.8s3-2.87,3.33-4.39c-1.58-8.24,1.37-8.37,2-10.8s-2.54-1.59-1.64-4.94,6.32-4.14,7.05-6.89-1.55-4.14-1.41-4.8c1.17-2.63.17-8.83,0-11.23,10.06-2.69,13.33-10.88,16.84-7.48,1.87-11.23,3.74-15,15-15,1.58-3.45-4.09-6.37-1.87-7.48,3.74-.47,6.61-.24,11,5.44,1.38,1.79,1.63-2.64,3-3.1s4.76-.48,5.26-2.69a38.1,38.1,0,0,1,3.16-9c1.58-3,2.81,1.17,4.21,7.13,7.9.3,25.74,2,33.22,4.1,5.62,1.46,9.36-1.46,14.74-2,4,4,7.72,1,9.83,9.48,3,4.57,7.83.41,8.89,1.75,6.26,17.25,27.78,5.62,29.42,5.91,2.74,0,6.1,7.71,8.27,7.52,3.51-.59,2.52-3,5.59-2-.82,6.49,6,14,6,18.83a2.93,2.93,0,0,0,3.21-.62c1.54-1.44,3-5.14,4.34-5,3.27.46,4.6.88,8.37,1.54,10.15,3.47,15.32,4.25,19.26,6,1.84,3.35,3.61,5.07,7.33,4.45,3.07,2.06.83,4.76,2.64,4.94,3.75-1.88,5-3.92,8.72-2.05a22.52,22.52,0,0,1,9.36,9.36c0,1.87-1.87,9.36,0,20.58a35.58,35.58,0,0,0,5.41,13.14c-1.07,6.59,5.06,17.69,5.06,20.5,0,3.74-3,5.67-4.86,9.41,7.49,5.62,0,15-3.74,20.59,28.07,5.61,15,16.84,37.43,11.23-5.62,13.1-3.63,12.05,2,25.15-11.23,7.49-.23,9.77-7.72,19.12-.47.59,4.44,8.13,11.34,8.13-1.87,15-7.48,9.36-5.61,31.82-14.74-.29-8.77,16.79-18.72,15,.59,10.71,5.68,11.64,3.75,22.46-7.49,1.87-7.49,1.87-11.23,7.49l-5.62-1.87c-1.87,9.35-5.61,11.23,0,20.58,0,0-7.25.24-9.35,0-.18,3.22,3.21,4.1,3.74,7.49-.29,1.35-10.65,7.25-18.72,7.49-2.1,4.62,5.62,9.53,5.15,11.87-8.77,1.7-12.63,12.46-12.63,12.46s4.5,1.81,3.74,3.74c-2.4-1.75-3.74-1.87-7.49-1.87-1.87.47-6.43-.11-10.8,7.27-4.8,1.58-7.07,1-10.71,5.82-1.62-4.58-3.93.05-6.77,1.83s-6.65,6.21-7.16,6a50.9,50.9,0,0,1,1.75-6l-9.35,1.87-1.16.12c-.73.07-.54-5.46-2.31-5.26s-6.85,7-8.58,7.17-2.27-2.15-3.76-1.94-4.39,7.13-5.44,7.31-5.23-4.21-8.82-3.6c-18.42,6.5-21.34-12.8-24.21-1.92-3.86-2.05-3.19-.86-7.11.16-2.51.65-2.73-3.3-5-3.24-4.45.12-4.22,4.33-6.65,3.08-2-8.78-14-7.2-15.14-10.94-1-3.91,5.19-3.89,7.18-6.53,1.52-3.82-1.59-5.27,4.58-8.95,8-5.44,3.42-7.49,4.83-11.57,2.52-5.9,2.53-7.34.43-12.55,0,0-6.26-16.84-7.49-16.84-3.74-1-3.74,6.2-9.24,8.19-11.23,3.74-31.06-9.48-34.51-9.48-3.16.06-17.78,3.46-17.23-3.83-2.19,7.09-10.23,1.67-10.73,1.67-7.48,0-4.62,5.79-9.65,5.55-2.28-.76-25.32-2.1-25.32-2.1v3.74l-15-7.49L143.7,365.1c-11.23-3.74-5.61-13.1-24.33-7.48V346.39H110c3.74-22.46,0-11.23-1.88-31.82l-7.48,1.87c-7.49-10.12,10.41-8.19-5.62-15,0,0,.3-11.17-3.74-7.49-.82.47,1.87,5.62,1.87,5.62C78.2,297.72,74.46,294,74.46,279c0,0,12.34,1.75,11.22,0-1.75-2.81-4-21.06-3.62-22.28-.18-2.46,11.46-8.66,9.21-14.57a27.13,27.13,0,0,1,5.64-.58"/></g></svg>